# xmcd CD database file
#
# Track frame offsets:
#	150
#	17447
#	51021
#	82649
#	115821
#	142296
#	173851
#	197918
#	229377
#	258103
#
# Disc length: 3769 seconds
#
# Revision: 0
# Processed by: cddbd v1.5.2PL0 Copyright (c) Steve Scherf et al.
# Submitted via: CDex 1.70beta2
#
DISCID=7e0eb70a
DTITLE=Fahir Atakoğlu - İstanbul in blue 
DYEAR=2007
DGENRE=Jazz
TTITLE0=Fuse on
TTITLE1=Sync-Op
TTITLE2=Black Sea
TTITLE3=Aheste
TTITLE4=Connection
TTITLE5=Ess
TTITLE6=Gypsy In Me
TTITLE7=Four Corners
TTITLE8=Trapped 
TTITLE9=İstanbul in blue  
EXTD=YEAR: 2007
EXTT0=
EXTT1=
EXTT2=
EXTT3=
EXTT4=
EXTT5=
EXTT6=
EXTT7=
EXTT8=
EXTT9=
PLAYORDER=
